<svg width="4253" height="3788" xmlns="http://www.w3.org/2000/svg" xmlns:xlink="http://www.w3.org/1999/xlink" xml:space="preserve" overflow="hidden"><defs><clipPath id="clip0"><rect x="324" y="1054" width="4253" height="3788"/></clipPath></defs><g clip-path="url(#clip0)" transform="translate(-324 -1054)"><rect x="324" y="4461" width="3103" height="375" fill="#023047" fill-opacity="0.101961"/><rect x="324" y="4078" width="3103" height="386" fill="#FFB703" fill-opacity="0.101961"/><rect x="324" y="1814" width="3622" height="539" fill="#FB8500" fill-opacity="0.2"/><rect x="2609.5" y="1143.5" width="1337" height="385" stroke="#000000" stroke-width="6.875" stroke-miterlimit="8" fill="#FFFFFF"/><text font-family="Open Sans,Open Sans_MSFontService,sans-serif" font-weight="400" font-size="83" transform="matrix(1 0 0 1 2656.72 1255)">Are the sender </text><text font-family="Open Sans,Open Sans_MSFontService,sans-serif" font-weight="400" font-size="83" transform="matrix(1 0 0 1 3244.03 1255)">cell </text><text font-family="Open Sans,Open Sans_MSFontService,sans-serif" font-weight="400" font-size="83" transform="matrix(1 0 0 1 3392.42 1255)">population(s) </text><text font-family="Open Sans,Open Sans_MSFontService,sans-serif" font-weight="400" font-size="83" transform="matrix(1 0 0 1 2781.05 1368)">and their secreted ligands </text><text font-family="Open Sans,Open Sans_MSFontService,sans-serif" font-weight="400" font-size="83" transform="matrix(1 0 0 1 2814.28 1480)">captured in the dataset?</text><rect x="969.5" y="1816.5" width="1209" height="533" stroke="#000000" stroke-width="6.875" stroke-miterlimit="8" fill="none"/><text font-family="Open Sans,Open Sans_MSFontService,sans-serif" font-weight="400" font-size="83" text-decoration="underline" transform="matrix(1 0 0 1 1060.01 1940)">Sender</text><text font-family="Open Sans,Open Sans_MSFontService,sans-serif" font-weight="400" font-size="83" text-decoration="underline" transform="matrix(1 0 0 1 1332.72 1940)">-</text><text font-family="Open Sans,Open Sans_MSFontService,sans-serif" font-weight="400" font-size="83" text-decoration="underline" transform="matrix(1 0 0 1 1359.07 1940)">agnostic approach:</text><text font-family="Open Sans,Open Sans_MSFontService,sans-serif" font-weight="400" font-size="83" transform="matrix(1 0 0 1 1091.84 2053)">all ligands in LR database</text><text font-family="Open Sans,Open Sans_MSFontService,sans-serif" font-weight="400" font-size="83" transform="matrix(1 0 0 1 1017.29 2165)">whose cognate receptors are</text><text font-family="Open Sans,Open Sans_MSFontService,sans-serif" font-weight="400" font-size="83" transform="matrix(1 0 0 1 1093.45 2278)">expressed in the receiver</text><rect x="2609.5" y="1816.5" width="1337" height="533" stroke="#000000" stroke-width="6.875" stroke-miterlimit="8" fill="none"/><text font-family="Open Sans,Open Sans_MSFontService,sans-serif" font-weight="400" font-size="83" text-decoration="underline" transform="matrix(1 0 0 1 2772.45 1940)">Sender</text><text font-family="Open Sans,Open Sans_MSFontService,sans-serif" font-weight="400" font-size="83" text-decoration="underline" transform="matrix(1 0 0 1 3045.16 1940)">-</text><text font-family="Open Sans,Open Sans_MSFontService,sans-serif" font-weight="400" font-size="83" text-decoration="underline" transform="matrix(1 0 0 1 3071.52 1940)">focused</text><text font-family="Open Sans,Open Sans_MSFontService,sans-serif" font-weight="400" font-size="83" text-decoration="underline" transform="matrix(1 0 0 1 3396.93 1940)">approac</text><text font-family="Open Sans,Open Sans_MSFontService,sans-serif" font-weight="400" font-size="83" text-decoration="underline" transform="matrix(1 0 0 1 3710.96 1940)">h</text><text font-family="Open Sans,Open Sans_MSFontService,sans-serif" font-weight="400" font-size="83" text-decoration="underline" transform="matrix(1 0 0 1 3761.38 1940)">:</text><text font-family="Open Sans,Open Sans_MSFontService,sans-serif" font-weight="400" font-size="83" transform="matrix(1 0 0 1 2699.95 2053)">ligands expressed in sender(s)</text><text font-family="Open Sans,Open Sans_MSFontService,sans-serif" font-weight="400" font-size="83" transform="matrix(1 0 0 1 2794.52 2165)">whose cognate receptors</text><text font-family="Open Sans,Open Sans_MSFontService,sans-serif" font-weight="400" font-size="83" transform="matrix(1 0 0 1 2725.08 2278)">are expressed in the receiver</text><rect x="1703.5" y="2670.5" width="1914" height="195" stroke="#000000" stroke-width="6.875" stroke-miterlimit="8" fill="#FFFFFF"/><text font-family="Open Sans,Open Sans_MSFontService,sans-serif" font-weight="400" font-size="83" transform="matrix(1 0 0 1 1755.93 2799)">Does the dataset have two </text><text font-family="Open Sans,Open Sans_MSFontService,sans-serif" font-weight="400" font-size="83" transform="matrix(1 0 0 1 2797.49 2799)">or more conditions</text><text font-family="Open Sans,Open Sans_MSFontService,sans-serif" font-weight="400" font-size="83" transform="matrix(1 0 0 1 3529.18 2799)">?</text><rect x="3617.5" y="4077.5" width="956" height="300" stroke="#000000" stroke-width="6.875" stroke-miterlimit="8" fill="#FFFFFF"/><text font-family="Open Sans,Open Sans_MSFontService,sans-serif" font-weight="400" font-size="83" transform="matrix(1 0 0 1 3753.43 4201)">NicheNet analysis</text><text font-family="Open Sans,Open Sans_MSFontService,sans-serif" font-weight="400" font-size="83" transform="matrix(1 0 0 1 3868.01 4314)">not suitable</text><path d="M0-3.4375 172.208-3.4375 172.208 1271.59 165.333 1271.59 165.333 0 168.771 3.4375 0 3.4375ZM191.687 1267.01 168.771 1312.84 145.854 1267.01Z" transform="matrix(-1 1.22465e-16 1.22465e-16 1 1704.27 2767.5)"/><path d="M2861.94 2865.5 2861.94 3110.79 2855.06 3110.79 2855.06 2865.5ZM2881.42 3106.21 2858.5 3152.04 2835.58 3106.21Z"/><path d="M2864.94 3766.5 2864.94 4039.54 2858.06 4039.54 2858.06 3766.5ZM2884.42 4034.96 2861.5 4080.79 2838.58 4034.96Z"/><path d="M4098.94 3766.5 4098.94 4036.2 4092.06 4036.2 4092.06 3766.5ZM4118.42 4031.62 4095.5 4077.45 4072.58 4031.62Z"/><text font-family="Open Sans,Open Sans_MSFontService,sans-serif" font-weight="400" font-size="83" transform="matrix(1 0 0 1 1359.63 3026)">Yes</text><text font-family="Open Sans,Open Sans_MSFontService,sans-serif" font-weight="400" font-size="83" transform="matrix(1 0 0 1 2692.95 3026)">No</text><text font-family="Open Sans,Open Sans_MSFontService,sans-serif" font-weight="400" font-size="83" transform="matrix(1 0 0 1 2684.97 3945)">Yes</text><text font-family="Open Sans,Open Sans_MSFontService,sans-serif" font-weight="400" font-size="83" transform="matrix(1 0 0 1 3940.31 3945)">No</text><text fill="#FB8500" font-family="Open Sans,Open Sans_MSFontService,sans-serif" font-weight="700" font-size="83" transform="matrix(1 0 0 1 439.462 2061)">Potential</text><text fill="#FB8500" font-family="Open Sans,Open Sans_MSFontService,sans-serif" font-weight="700" font-size="83" transform="matrix(1 0 0 1 481.285 2160)">ligands</text><text fill="#FFB703" font-family="Open Sans,Open Sans_MSFontService,sans-serif" font-weight="700" font-size="83" transform="matrix(1 0 0 1 449.201 4249)">Gene set</text><text fill="#FFB703" font-family="Open Sans,Open Sans_MSFontService,sans-serif" font-weight="700" font-size="83" transform="matrix(1 0 0 1 413.36 4348)">of interest</text><text fill="#023047" font-family="Open Sans,Open Sans_MSFontService,sans-serif" font-weight="700" font-size="83" transform="matrix(1 0 0 1 382.136 4626)">Background</text><text fill="#023047" font-family="Open Sans,Open Sans_MSFontService,sans-serif" font-weight="700" font-size="83" transform="matrix(1 0 0 1 455.79 4725)">gene set</text><text font-family="Open Sans,Open Sans_MSFontService,sans-serif" font-weight="400" font-size="83" transform="matrix(1 0 0 1 2509.34 4247)">DE genes between</text><text font-family="Open Sans,Open Sans_MSFontService,sans-serif" font-weight="400" font-size="83" transform="matrix(1 0 0 1 2425.63 4360)">relevant cell (sub)types</text><rect x="2295.5" y="4080.5" width="1132" height="752" stroke="#000000" stroke-width="6.875" stroke-miterlimit="8" fill="none"/><text font-family="Open Sans,Open Sans_MSFontService,sans-serif" font-weight="400" font-size="83" transform="matrix(1 0 0 1 2405.07 4681)">All genes in the genome</text><text font-family="Open Sans,Open Sans_MSFontService,sans-serif" font-weight="400" font-size="83" transform="matrix(1 0 0 1 1314.41 4190)">DE genes </text><text font-family="Open Sans,Open Sans_MSFontService,sans-serif" font-weight="400" font-size="83" transform="matrix(1 0 0 1 1690.82 4190)">in</text><text font-family="Open Sans,Open Sans_MSFontService,sans-serif" font-weight="400" font-size="83" transform="matrix(1 0 0 1 1150.53 4303)">condition of interest</text><text font-family="Open Sans,Open Sans_MSFontService,sans-serif" font-weight="400" font-size="83" transform="matrix(1 0 0 1 1182.89 4415)">within </text><text font-family="Open Sans,Open Sans_MSFontService,sans-serif" font-weight="400" font-size="83" transform="matrix(1 0 0 1 1439.56 4415)">the receiver</text><rect x="969.5" y="4080.5" width="1131" height="752" stroke="#000000" stroke-width="6.875" stroke-miterlimit="8" fill="none"/><text font-family="Open Sans,Open Sans_MSFontService,sans-serif" font-weight="400" font-size="83" transform="matrix(1 0 0 1 1159.95 4624)">All expressed genes</text><text font-family="Open Sans,Open Sans_MSFontService,sans-serif" font-weight="400" font-size="83" transform="matrix(1 0 0 1 1265.12 4737)">in the receiver</text><path d="M983.5 1301.5C983.5 1193.25 1247.88 1105.5 1574 1105.5 1900.12 1105.5 2164.5 1193.25 2164.5 1301.5 2164.5 1409.75 1900.12 1497.5 1574 1497.5 1247.88 1497.5 983.5 1409.75 983.5 1301.5Z" stroke="#000000" stroke-width="3.4375" stroke-linejoin="round" stroke-miterlimit="10" fill="none" fill-rule="evenodd"/><text font-family="Open Sans,Open Sans_MSFontService,sans-serif" font-weight="400" font-size="83" transform="matrix(1 0 0 1 1244.78 1279)">For each receiver </text><text font-family="Open Sans,Open Sans_MSFontService,sans-serif" font-weight="400" font-size="83" transform="matrix(1 0 0 1 1290.36 1378)">cell population</text><path d="M3.4375-3.88405e-06 3.43781 278.151-3.43719 278.151-3.4375 3.88405e-06ZM22.917 273.567 0.000360892 319.401-22.9164 273.567Z" transform="matrix(-1 0 0 1 1573.5 1497.5)"/><path d="M0-3.4375 219.007-3.4375 219.007 747.182 215.57 743.744 389.89 743.744 389.89 750.619 212.132 750.619 212.132 0 215.57 3.4375 0 3.4375ZM385.306 724.265 431.14 747.182 385.306 770.098Z" transform="matrix(1 0 0 -1 2178.5 2083.68)"/><path d="M3281.94 1528.5 3281.94 1774.88 3275.06 1774.88 3275.06 1528.5ZM3301.42 1770.3 3278.5 1816.13 3255.58 1770.3Z"/><text font-family="Open Sans,Open Sans_MSFontService,sans-serif" font-weight="400" font-size="83" transform="matrix(1 0 0 1 3081.46 1696)">Yes</text><path d="M0 3.4375-534.877 3.4375-531.439 0-531.439 1175.08-534.877 1171.64 1289.54 1171.64 1289.54 1292.95 1282.66 1292.95 1282.66 1175.08 1286.1 1178.52-538.314 1178.52-538.314-3.4375 0-3.4375ZM1309.02 1288.36 1286.1 1334.2 1263.18 1288.36Z" transform="matrix(-1 0 0 1 3946.6 1336.5)"/><path d="M3281.42 2349.5 3281.42 2513.09 2660.5 2513.09 2663.94 2509.65 2663.94 2628.55 2657.06 2628.55 2657.06 2506.21 3277.99 2506.21 3274.55 2509.65 3274.55 2349.5ZM2683.42 2623.96 2660.5 2669.8 2637.58 2623.96Z"/><text font-family="Open Sans,Open Sans_MSFontService,sans-serif" font-weight="400" font-size="83" transform="matrix(1 0 0 1 4146.64 1157)">No /</text><text font-family="Open Sans,Open Sans_MSFontService,sans-serif" font-weight="400" font-size="83" transform="matrix(1 0 0 1 3996.33 1256)">I don’t know</text><rect x="2459.5" y="3148.5" width="2023" height="650" stroke="#000000" stroke-width="6.875" stroke-miterlimit="8" fill="#FFFFFF"/><text font-family="Open Sans,Open Sans_MSFontService,sans-serif" font-weight="400" font-size="83" transform="matrix(1 0 0 1 2536.82 3279)">Is the CCC</text><text font-family="Open Sans,Open Sans_MSFontService,sans-serif" font-weight="400" font-size="83" transform="matrix(1 0 0 1 2942.01 3279)">event</text><text font-family="Open Sans,Open Sans_MSFontService,sans-serif" font-weight="400" font-size="83" transform="matrix(1 0 0 1 3175.26 3279)">of interest one of the following?</text><text font-family="Open Sans,Open Sans_MSFontService,sans-serif" font-weight="400" font-size="83" transform="matrix(1 0 0 1 2536.82 3392)">a)</text><text font-family="Open Sans,Open Sans_MSFontService,sans-serif" font-weight="400" font-size="83" text-decoration="underline" transform="matrix(1 0 0 1 2660.57 3392)">Cell Differentiation:</text><text font-family="Open Sans,Open Sans_MSFontService,sans-serif" font-weight="400" font-size="83" transform="matrix(1 0 0 1 3422.62 3392)">differences between a</text><text font-family="Open Sans,Open Sans_MSFontService,sans-serif" font-weight="400" font-size="83" transform="matrix(1 0 0 1 2660.57 3504)">progenitor</text><text font-family="Open Sans,Open Sans_MSFontService,sans-serif" font-weight="400" font-size="83" transform="matrix(1 0 0 1 3089.76 3504)">and</text><text font-family="Open Sans,Open Sans_MSFontService,sans-serif" font-weight="400" font-size="83" transform="matrix(1 0 0 1 3257.62 3504)">differentiated</text><text font-family="Open Sans,Open Sans_MSFontService,sans-serif" font-weight="400" font-size="83" transform="matrix(1 0 0 1 3803.11 3504)">cell</text><text font-family="Open Sans,Open Sans_MSFontService,sans-serif" font-weight="400" font-size="83" transform="matrix(1 0 0 1 3951.49 3504)">type</text><text font-family="Open Sans,Open Sans_MSFontService,sans-serif" font-weight="400" font-size="83" transform="matrix(1 0 0 1 2536.82 3617)">b)</text><text font-family="Open Sans,Open Sans_MSFontService,sans-serif" font-weight="400" font-size="83" text-decoration="underline" transform="matrix(1 0 0 1 2660.57 3617)">Cell Localization:</text><text font-family="Open Sans,Open Sans_MSFontService,sans-serif" font-weight="400" font-size="83" transform="matrix(1 0 0 1 3318.28 3617)">differences between cell </text><text font-family="Open Sans,Open Sans_MSFontService,sans-serif" font-weight="400" font-size="83" transform="matrix(1 0 0 1 2660.57 3730)">subtypes located in different niches or areas</text></g></svg>